HIERARCHY
ROOT Hips
{
	OFFSET 0.000000 100.481300 0.000000
	CHANNELS 6 Xposition Yposition Zposition Xrotation Yrotation Zrotation
	JOINT Spine
	{
		OFFSET -0.279200 12.230698 -2.892100
		CHANNELS 3 Xrotation Yrotation Zrotation
		JOINT Spine1
		{
			OFFSET -0.325700 14.269203 -3.374200
			CHANNELS 3 Xrotation Yrotation Zrotation
			JOINT Spine2
			{
				OFFSET -0.372300 16.307602 -0.352600
				CHANNELS 3 Xrotation Yrotation Zrotation
				JOINT Neck
				{
					OFFSET -0.418800 17.814194 8.416900
					CHANNELS 3 Xrotation Yrotation Zrotation
					JOINT Head
					{
						OFFSET 0.000000 7.031097 3.806800
						CHANNELS 3 Xrotation Yrotation Zrotation
						JOINT HeadTop_End
						{
							OFFSET 0.000000 24.646606 12.978600
							CHANNELS 3 Xrotation Yrotation Zrotation
							End Site
							{
								OFFSET 0.000000 27.854965 0.000000
							}
						}
					}
				}
				JOINT LeftShoulder
				{
					OFFSET 16.952999 14.495407 -7.737500
					CHANNELS 3 Xrotation Yrotation Zrotation
					JOINT LeftArm
					{
						OFFSET 9.308998 -2.777710 0.208600
						CHANNELS 3 Xrotation Yrotation Zrotation
						JOINT LeftForeArm
						{
							OFFSET 29.972298 0.000000 0.000000
							CHANNELS 3 Xrotation Yrotation Zrotation
							JOINT LeftHand
							{
								OFFSET 26.026505 0.000000 0.000000
								CHANNELS 3 Xrotation Yrotation Zrotation
								JOINT LeftHandThumb1
								{
									OFFSET 12.240501 -7.147949 9.207150
									CHANNELS 3 Xrotation Yrotation Zrotation
									JOINT LeftHandThumb2
									{
										OFFSET 4.138618 -2.389435 2.389433
										CHANNELS 3 Xrotation Yrotation Zrotation
										JOINT LeftHandThumb3
										{
											OFFSET 2.726913 -1.574387 1.574386
											CHANNELS 3 Xrotation Yrotation Zrotation
											JOINT LeftHandThumb4
											{
												OFFSET 3.941010 -2.275345 2.275342
												CHANNELS 3 Xrotation Yrotation Zrotation
												End Site
												{
													OFFSET -0.005798 5.087799 0.009903
												}
											}
										}
									}
								}
								JOINT LeftHandIndex1
								{
									OFFSET 24.424698 -1.985611 5.953459
									CHANNELS 3 Xrotation Yrotation Zrotation
									JOINT LeftHandIndex2
									{
										OFFSET 6.426697 0.000000 0.000000
										CHANNELS 3 Xrotation Yrotation Zrotation
										JOINT LeftHandIndex3
										{
											OFFSET 5.337898 0.000000 0.000000
											CHANNELS 3 Xrotation Yrotation Zrotation
											JOINT LeftHandIndex4
											{
												OFFSET 4.409401 0.000000 0.000000
												CHANNELS 3 Xrotation Yrotation Zrotation
												End Site
												{
													OFFSET 0.000000 4.409363 0.014373
												}
											}
										}
									}
								}
								JOINT LeftHandMiddle1
								{
									OFFSET 23.810104 0.000000 0.000000
									CHANNELS 3 Xrotation Yrotation Zrotation
									JOINT LeftHandMiddle2
									{
										OFFSET 7.176498 0.000000 0.000000
										CHANNELS 3 Xrotation Yrotation Zrotation
										JOINT LeftHandMiddle3
										{
											OFFSET 6.774902 0.000000 0.000000
											CHANNELS 3 Xrotation Yrotation Zrotation
											JOINT LeftHandMiddle4
											{
												OFFSET 5.403328 0.000000 0.000000
												CHANNELS 3 Xrotation Yrotation Zrotation
												End Site
												{
													OFFSET -0.027702 5.403244 0.017414
												}
											}
										}
									}
								}
								JOINT LeftHandRing1
								{
									OFFSET 22.908401 -0.839279 -6.020567
									CHANNELS 3 Xrotation Yrotation Zrotation
									JOINT LeftHandRing2
									{
										OFFSET 6.337502 0.000000 0.000000
										CHANNELS 3 Xrotation Yrotation Zrotation
										JOINT LeftHandRing3
										{
											OFFSET 5.779297 0.000000 0.000000
											CHANNELS 3 Xrotation Yrotation Zrotation
											JOINT LeftHandRing4
											{
												OFFSET 4.965698 0.000000 0.000000
												CHANNELS 3 Xrotation Yrotation Zrotation
												End Site
												{
													OFFSET 0.000000 4.965668 0.016186
												}
											}
										}
									}
								}
								JOINT LeftHandPinky1
								{
									OFFSET 20.037003 -1.530319 -10.950146
									CHANNELS 3 Xrotation Yrotation Zrotation
									JOINT LeftHandPinky2
									{
										OFFSET 5.254700 0.000000 0.000000
										CHANNELS 3 Xrotation Yrotation Zrotation
										JOINT LeftHandPinky3
										{
											OFFSET 4.810204 0.000000 0.000000
											CHANNELS 3 Xrotation Yrotation Zrotation
											JOINT LeftHandPinky4
											{
												OFFSET 3.647202 0.000000 0.000000
												CHANNELS 3 Xrotation Yrotation Zrotation
												End Site
												{
													OFFSET 0.000000 3.647186 0.011889
												}
											}
										}
									}
								}
							}
						}
					}
				}
				JOINT RightShoulder
				{
					OFFSET -15.141001 14.495407 -7.737500
					CHANNELS 3 Xrotation Yrotation Zrotation
					JOINT RightArm
					{
						OFFSET -9.308998 -2.777710 0.208500
						CHANNELS 3 Xrotation Yrotation Zrotation
						JOINT RightForeArm
						{
							OFFSET -29.972300 0.000000 0.000000
							CHANNELS 3 Xrotation Yrotation Zrotation
							JOINT RightHand
							{
								OFFSET -26.026505 0.000000 0.000000
								CHANNELS 3 Xrotation Yrotation Zrotation
								JOINT RightHandThumb1
								{
									OFFSET -12.240601 -7.148026 9.207092
									CHANNELS 3 Xrotation Yrotation Zrotation
									JOINT RightHandThumb2
									{
										OFFSET -4.138618 -2.389435 2.389433
										CHANNELS 3 Xrotation Yrotation Zrotation
										JOINT RightHandThumb3
										{
											OFFSET -2.726974 -1.574417 1.574421
											CHANNELS 3 Xrotation Yrotation Zrotation
											JOINT RightHandThumb4
											{
												OFFSET -3.941010 -2.275345 2.275343
												CHANNELS 3 Xrotation Yrotation Zrotation
												End Site
												{
													OFFSET 0.005814 5.087799 0.009927
												}
											}
										}
									}
								}
								JOINT RightHandIndex1
								{
									OFFSET -24.424698 -1.985657 5.953444
									CHANNELS 3 Xrotation Yrotation Zrotation
									JOINT RightHandIndex2
									{
										OFFSET -6.426697 0.000000 0.000000
										CHANNELS 3 Xrotation Yrotation Zrotation
										JOINT RightHandIndex3
										{
											OFFSET -5.337898 0.000000 0.000000
											CHANNELS 3 Xrotation Yrotation Zrotation
											JOINT RightHandIndex4
											{
												OFFSET -4.409401 0.000000 0.000000
												CHANNELS 3 Xrotation Yrotation Zrotation
												End Site
												{
													OFFSET 0.000000 4.409363 0.014408
												}
											}
										}
									}
								}
								JOINT RightHandMiddle1
								{
									OFFSET -23.810097 0.000000 0.000000
									CHANNELS 3 Xrotation Yrotation Zrotation
									JOINT RightHandMiddle2
									{
										OFFSET -7.176498 0.000000 0.000000
										CHANNELS 3 Xrotation Yrotation Zrotation
										JOINT RightHandMiddle3
										{
											OFFSET -6.774902 0.000000 0.000000
											CHANNELS 3 Xrotation Yrotation Zrotation
											JOINT RightHandMiddle4
											{
												OFFSET -5.403328 0.000000 0.000000
												CHANNELS 3 Xrotation Yrotation Zrotation
												End Site
												{
													OFFSET 0.027702 5.403244 0.017457
												}
											}
										}
									}
								}
								JOINT RightHandRing1
								{
									OFFSET -22.908302 -0.839325 -6.020576
									CHANNELS 3 Xrotation Yrotation Zrotation
									JOINT RightHandRing2
									{
										OFFSET -6.337502 0.000000 0.000000
										CHANNELS 3 Xrotation Yrotation Zrotation
										JOINT RightHandRing3
										{
											OFFSET -5.779297 0.000000 0.000000
											CHANNELS 3 Xrotation Yrotation Zrotation
											JOINT RightHandRing4
											{
												OFFSET -4.965698 0.000000 0.000000
												CHANNELS 3 Xrotation Yrotation Zrotation
												End Site
												{
													OFFSET 0.000000 4.965668 0.016226
												}
											}
										}
									}
								}
								JOINT RightHandPinky1
								{
									OFFSET -20.037003 -1.530334 -10.950259
									CHANNELS 3 Xrotation Yrotation Zrotation
									JOINT RightHandPinky2
									{
										OFFSET -5.254700 0.000000 0.000000
										CHANNELS 3 Xrotation Yrotation Zrotation
										JOINT RightHandPinky3
										{
											OFFSET -4.810204 0.000000 0.000000
											CHANNELS 3 Xrotation Yrotation Zrotation
											JOINT RightHandPinky4
											{
												OFFSET -3.647202 0.000000 0.000000
												CHANNELS 3 Xrotation Yrotation Zrotation
												End Site
												{
													OFFSET 0.000000 3.647186 0.011917
												}
											}
										}
									}
								}
							}
						}
					}
				}
			}
		}
	}
	JOINT LeftUpLeg
	{
		OFFSET 15.427100 -6.655098 0.678600
		CHANNELS 3 Xrotation Yrotation Zrotation
		JOINT LeftLeg
		{
			OFFSET 4.081073 -39.591068 13.024000
			CHANNELS 3 Xrotation Yrotation Zrotation
			JOINT LeftFoot
			{
				OFFSET -4.081074 -37.707932 -15.979700
				CHANNELS 3 Xrotation Yrotation Zrotation
				JOINT LeftToeBase
				{
					OFFSET 5.346399 -15.068900 20.645000
					CHANNELS 3 Xrotation Yrotation Zrotation
					JOINT LeftToe_End
					{
						OFFSET 2.754700 0.931300 11.300900
						CHANNELS 3 Xrotation Yrotation Zrotation
						End Site
						{
							OFFSET 0.000000 11.669021 0.000000
						}
					}
				}
			}
		}
	}
	JOINT RightUpLeg
	{
		OFFSET -15.569500 -6.655098 0.678600
		CHANNELS 3 Xrotation Yrotation Zrotation
		JOINT RightLeg
		{
			OFFSET -4.081825 -39.591045 13.023800
			CHANNELS 3 Xrotation Yrotation Zrotation
			JOINT RightFoot
			{
				OFFSET 4.081824 -37.707954 -15.979600
				CHANNELS 3 Xrotation Yrotation Zrotation
				JOINT RightToeBase
				{
					OFFSET -5.346400 -15.068900 20.645000
					CHANNELS 3 Xrotation Yrotation Zrotation
					JOINT RightToe_End
					{
						OFFSET -2.754700 0.931300 11.300900
						CHANNELS 3 Xrotation Yrotation Zrotation
						End Site
						{
							OFFSET 0.000000 11.669021 0.000000
						}
					}
				}
			}
		}
	}
}
MOTION
Frames: 4
Frame Time: 0.033333
-7.018561 35.299507 125.068596 59.619430 17.220913 -5.182547 6.990950 1.325097 -1.647347 13.963439 -1.120016 -0.662450 13.963456 -1.120010 -0.662454 9.895179 -6.856618 -8.725635 -6.520593 -4.574096 6.203642 0.000000 0.000000 -0.000002 4.376192 -36.329138 2.865734 -39.150699 -52.700449 -16.773630 37.178123 -26.411175 6.035345 16.707657 14.494230 72.902345 -34.564790 -9.345553 -6.309173 -0.321194 0.063677 0.788433 0.000004 -0.000002 0.000003 -0.000002 -0.000000 -0.000000 -0.901947 -6.980959 -3.808451 0.033450 0.804218 -16.419075 -0.000000 -0.000000 -0.000001 -0.000000 -0.000000 0.000002 2.895199 10.500302 -4.634071 -0.458810 -1.565467 -21.880945 -0.000001 0.000000 0.000001 -0.000001 0.000000 0.000005 2.580803 16.043307 -17.678818 -1.443295 -0.746440 0.000012 0.000003 -0.000004 -0.000003 -0.000000 -0.000000 -0.000002 3.792363 30.496016 -24.560288 -2.173431 -4.051400 0.000041 -0.000000 -0.000002 -0.000000 0.000001 0.000001 -0.000000 3.899381 29.837654 -4.160015 -32.883543 3.661941 34.701626 17.081099 51.169660 -15.410444 16.538451 -18.579921 -85.722740 -61.837097 -10.629397 33.216344 -0.582312 -0.080546 -1.228385 0.000007 0.000001 0.000021 0.000000 0.000000 -0.000004 -0.111006 19.849971 4.861045 0.317922 -1.874813 9.171070 -0.000000 -0.000001 -0.000000 -0.000001 -0.000001 -0.000001 0.217710 -1.003002 10.135048 -0.012809 0.001133 8.921103 -0.000004 0.000002 -0.000002 -0.000000 0.000000 0.000003 1.393695 -4.325162 17.948760 0.023693 0.765792 -0.000012 0.000000 -0.000000 -0.000000 0.000001 0.000000 -0.000002 -1.856289 -30.654613 17.544533 -0.413863 5.581351 7.713581 -0.000001 0.000002 -0.000000 0.000001 0.000000 -0.000002 -128.662404 -25.530923 38.700029 109.411919 -16.069695 -8.554294 -2.096514 3.341614 -10.756902 -19.358617 -2.524793 -15.716187 -0.000000 -0.000002 -0.000000 -16.895504 8.040631 -120.773563 51.838954 49.452369 99.936200 22.103284 4.800670 -13.554112 -45.558284 -3.075095 36.225520 -0.000001 0.000002 -0.000001 
-6.499470 35.076118 124.933701 58.910894 16.659595 -4.927636 7.113193 1.707524 -1.536261 14.195484 -0.356828 -0.767129 14.195478 -0.356832 -0.767126 14.640753 -6.014525 -6.866481 -6.797166 -2.916870 6.024365 -0.000001 0.000000 -0.000000 4.171524 -37.640524 1.705265 -38.857677 -54.585864 -15.596764 37.565190 -25.354432 5.659851 16.229904 13.881322 72.231054 -34.563660 -9.343752 -6.308693 -0.323159 0.059390 0.787769 0.000004 -0.000000 0.000004 -0.000001 -0.000001 -0.000000 -0.901953 -6.980966 -3.808452 0.033434 0.804218 -16.419063 0.000003 -0.000002 -0.000000 0.000001 -0.000000 -0.000001 2.895196 10.500304 -4.634066 -0.458819 -1.565453 -21.880940 -0.000001 0.000001 -0.000002 -0.000000 0.000000 0.000001 2.580800 16.043312 -17.679007 -1.443307 -0.746447 -0.000008 0.000002 -0.000004 -0.000002 0.000001 0.000000 -0.000000 3.792346 30.496002 -24.560170 -2.173430 -4.051420 0.000009 -0.000000 -0.000002 -0.000003 -0.000000 0.000000 -0.000001 4.035216 30.443144 -4.385738 -31.740763 0.253874 33.538384 17.952925 54.115947 -17.887475 17.098784 -19.141195 -83.783533 -61.835779 -10.630191 33.216381 -0.583753 -0.077464 -1.227871 0.000009 0.000001 0.000021 0.000002 0.000000 -0.000004 -0.111010 19.849971 4.861045 0.317921 -1.874793 9.171071 -0.000000 -0.000001 -0.000000 0.000000 -0.000001 -0.000001 0.217710 -1.003005 10.135040 -0.012809 0.001125 8.921106 -0.000005 0.000003 -0.000001 -0.000000 -0.000000 -0.000002 1.393695 -4.325157 17.948692 0.023692 0.765800 -0.000027 -0.000002 -0.000000 0.000000 0.000000 0.000000 0.000000 -1.856294 -30.654599 17.544529 -0.413864 5.581345 7.713584 0.000000 -0.000001 -0.000000 -0.000001 -0.000002 0.000002 -128.151930 -26.277133 39.050876 110.593965 -15.759413 -8.616143 -2.836564 3.209129 -10.117805 -19.373155 -2.557252 -16.263273 0.000000 -0.000002 -0.000000 -18.804462 4.269824 -123.670547 50.797117 48.733434 101.658179 25.621768 4.672399 -17.437271 -43.932719 -1.703576 38.085869 0.000002 -0.000000 -0.000002 
-5.697200 35.127174 124.656067 58.417679 16.031767 -4.716702 7.138693 1.922920 -1.279980 14.246949 0.258394 -0.822397 14.246959 0.258394 -0.822400 18.793344 -5.193825 -4.496568 -8.096972 -1.046625 5.715130 0.000001 -0.000000 -0.000001 3.825883 -39.678044 -0.010823 -36.433711 -55.803895 -11.689739 37.818624 -24.615718 5.079928 15.129009 13.238363 71.435944 -34.564490 -9.345065 -6.309051 -0.321727 0.062499 0.788247 0.000005 -0.000000 0.000003 -0.000002 0.000001 0.000001 -0.901954 -6.980979 -3.808449 0.033437 0.804219 -16.419064 0.000000 -0.000002 -0.000000 0.000001 -0.000001 -0.000000 2.895198 10.500326 -4.634061 -0.458818 -1.565488 -21.880946 -0.000000 0.000001 0.000002 -0.000001 0.000000 0.000001 2.580786 16.043240 -17.679871 -1.443313 -0.746404 0.000003 0.000002 -0.000004 -0.000000 -0.000000 -0.000000 -0.000000 3.792342 30.495985 -24.560385 -2.173445 -4.051421 -0.000017 0.000000 -0.000002 -0.000003 0.000000 0.000001 -0.000001 3.996238 31.779835 -3.543407 -31.584516 -2.889751 31.193006 19.024003 56.722341 -20.583603 18.683643 -19.487556 -80.560476 -61.836974 -10.629475 33.216344 -0.582457 -0.080286 -1.228329 0.000010 0.000003 0.000023 0.000002 -0.000001 -0.000000 -0.111006 19.849979 4.861046 0.317917 -1.874805 9.171072 -0.000001 -0.000000 -0.000001 0.000001 -0.000002 0.000000 0.217710 -1.003010 10.135046 -0.012808 0.001108 8.921106 -0.000004 0.000003 -0.000002 -0.000001 -0.000000 0.000000 1.393692 -4.325159 17.948832 0.023692 0.765779 -0.000019 -0.000001 0.000000 -0.000000 0.000001 -0.000000 0.000000 -1.856293 -30.654610 17.544529 -0.413866 5.581355 7.713584 -0.000001 -0.000000 0.000001 0.000001 0.000000 0.000001 -127.322308 -25.736392 39.284718 111.647727 -15.448307 -8.769323 -5.057857 3.106517 -9.050945 -18.712020 -2.432767 -16.247881 -0.000000 0.000002 0.000000 -23.903463 5.771894 -123.887501 58.169306 49.639735 93.818269 27.551277 3.946780 -19.966292 -42.639324 -0.739234 39.898260 -0.000000 0.000001 -0.000001 
-4.735714 35.485832 124.118118 58.138741 15.455895 -4.529869 7.096303 2.173244 -0.918710 14.170987 0.926550 -0.806731 14.170979 0.926546 -0.806732 21.102027 -4.867940 -2.073045 -9.595304 0.457039 5.200985 0.000000 -0.000000 0.000000 3.783265 -42.402514 -0.865069 -36.839681 -56.408579 -10.806974 36.608940 -22.401175 4.355828 16.379576 11.331680 70.246822 -34.564845 -9.345634 -6.309204 -0.321126 0.063855 0.788458 0.000007 0.000001 0.000003 0.000001 0.000002 0.000000 -0.901953 -6.980986 -3.808448 0.033439 0.804233 -16.419066 0.000000 0.000000 -0.000001 0.000001 0.000000 0.000001 2.895201 10.500313 -4.634064 -0.458814 -1.565464 -21.880941 -0.000000 0.000001 0.000000 0.000001 0.000000 0.000000 2.580787 16.043218 -17.680264 -1.443313 -0.746362 -0.000000 0.000002 -0.000004 -0.000001 -0.000000 -0.000000 -0.000001 3.792349 30.495968 -24.560486 -2.173450 -4.051422 0.000016 -0.000000 -0.000002 0.000002 -0.000000 0.000000 0.000002 3.683258 32.959757 -1.832157 -32.206227 -5.373488 27.397089 19.951681 58.860596 -22.763871 20.321476 -19.645497 -76.686618 -61.836435 -10.629770 33.216354 -0.583020 -0.079024 -1.228123 0.000012 0.000002 0.000021 0.000002 0.000000 -0.000002 -0.111005 19.849976 4.861045 0.317921 -1.874814 9.171067 0.000000 0.000000 0.000001 -0.000001 0.000002 -0.000000 0.217710 -1.003004 10.135045 -0.012809 0.001119 8.921104 -0.000004 0.000003 0.000002 0.000000 -0.000000 -0.000002 1.393692 -4.325151 17.948740 0.023695 0.765812 -0.000003 -0.000002 -0.000000 0.000000 0.000000 -0.000000 -0.000002 -1.856294 -30.654606 17.544524 -0.413864 5.581360 7.713584 0.000000 -0.000002 0.000000 -0.000001 0.000000 -0.000001 -126.724885 -23.599936 38.974091 112.454113 -14.848324 -8.875622 -8.490004 2.891052 -6.956144 -17.376724 -1.887441 -16.106652 -0.000000 0.000000 0.000000 -30.933657 10.888561 -122.572826 72.247521 50.038680 78.462515 27.906917 2.970125 -21.186118 -43.840621 -1.250852 37.801043 0.000001 0.000002 -0.000001 
